<svg width="1152" height="576" xmlns="http://www.w3.org/2000/svg" xmlns:xlink="http://www.w3.org/1999/xlink" overflow="hidden"><defs><clipPath id="clip0"><rect x="0" y="0" width="1152" height="576"/></clipPath><clipPath id="clip1"><path d="M504.543 220.424 454.927 378.468 296.883 328.853 346.498 170.808Z" fill-rule="evenodd" clip-rule="evenodd"/></clipPath><clipPath id="clip2"><path d="M504.543 220.424 454.927 378.468 296.883 328.853 346.498 170.808Z" fill-rule="evenodd" clip-rule="evenodd"/></clipPath><clipPath id="clip3"><path d="M504.543 220.424 454.927 378.468 296.883 328.853 346.498 170.808Z" fill-rule="evenodd" clip-rule="evenodd"/></clipPath><clipPath id="clip4"><path d="M896.788 213.503 847.173 371.548 689.128 321.932 738.744 163.888Z" fill-rule="evenodd" clip-rule="evenodd"/></clipPath><clipPath id="clip5"><path d="M896.788 213.503 847.173 371.548 689.128 321.932 738.744 163.888Z" fill-rule="evenodd" clip-rule="evenodd"/></clipPath><clipPath id="clip6"><path d="M896.788 213.503 847.173 371.548 689.128 321.932 738.744 163.888Z" fill-rule="evenodd" clip-rule="evenodd"/></clipPath><clipPath id="clip7"><path d="M933.614 363.256 772.443 512.403 623.296 351.232 784.467 202.085Z" fill-rule="evenodd" clip-rule="evenodd"/></clipPath><clipPath id="clip8"><path d="M933.614 363.256 772.443 512.403 623.296 351.232 784.467 202.085Z" fill-rule="evenodd" clip-rule="evenodd"/></clipPath><clipPath id="clip9"><path d="M933.614 363.256 772.443 512.403 623.296 351.232 784.467 202.085Z" fill-rule="evenodd" clip-rule="evenodd"/></clipPath></defs><g clip-path="url(#clip0)"><rect x="0" y="0" width="1152" height="576" fill="#FFFFFF"/><g clip-path="url(#clip1)"><g clip-path="url(#clip2)"><g clip-path="url(#clip3)"><path d="M466.828 282.373 459.842 304.052C458.963 306.851 460.431 309.663 463.23 310.541 466.029 311.42 468.841 309.952 469.719 307.153L480.385 274.33C480.747 273.178 480.728 272.087 480.215 270.841 480.266 270.676 480.102 270.624 479.989 270.408 479.876 270.192 479.928 270.027 479.65 269.759 479.65 269.759 479.537 269.543 479.372 269.491 479.372 269.491 479.26 269.275 479.095 269.223 478.591 268.523 477.82 268.099 476.997 267.841L444.174 257.175C441.376 256.297 438.564 257.765 437.685 260.564 436.806 263.362 438.275 266.174 441.073 267.053L461.436 273.626C435.377 293.84 406.312 298.28 375.056 286.659 359.726 280.761 345.604 272.168 333.349 261.086 331.241 259.159 328.132 259.268 326.205 261.376 324.329 263.319 324.221 266.54 326.277 268.633 339.366 280.518 354.649 290.018 371.296 296.33 395.083 305.244 430.858 309.964 466.828 282.373Z"/></g></g></g><rect x="102" y="52" width="207" height="236" fill="#8FAADC"/><rect x="494" y="52" width="207" height="236" fill="#8FAADC"/><rect x="887" y="52" width="207" height="236" fill="#8FAADC"/><text font-family="Calibri,Calibri_MSFontService,sans-serif" font-weight="400" font-size="21" transform="translate(373.852 330)">Move at <tspan font-size="21" x="0" y="26">time t</tspan></text><g clip-path="url(#clip4)"><g clip-path="url(#clip5)"><g clip-path="url(#clip6)"><path d="M859.074 275.452 852.087 297.132C851.209 299.93 852.677 302.742 855.476 303.621 858.274 304.5 861.086 303.031 861.965 300.233L872.631 267.41C872.992 266.258 872.973 265.166 872.46 263.92 872.512 263.756 872.347 263.704 872.234 263.488 872.121 263.271 872.173 263.107 871.896 262.839 871.896 262.839 871.783 262.622 871.618 262.571 871.618 262.571 871.505 262.354 871.34 262.303 870.837 261.602 870.065 261.179 869.242 260.921L836.42 250.255C833.621 249.376 830.809 250.845 829.93 253.643 829.052 256.442 830.52 259.254 833.319 260.133L853.681 266.706C827.622 286.919 798.558 291.359 767.301 279.738 751.971 273.84 737.85 265.247 725.594 254.166 723.486 252.238 720.378 252.347 718.45 254.455 716.574 256.398 716.467 259.62 718.523 261.712 731.611 273.598 746.895 283.098 763.542 289.409 787.329 298.324 823.103 303.043 859.074 275.452Z"/></g></g></g><text font-family="Calibri,Calibri_MSFontService,sans-serif" font-weight="400" font-size="21" transform="translate(756.524 332)">Move at <tspan font-size="21" x="0" y="26">time t+1</tspan></text><path d="M182 169C182 159.611 189.611 152 199 152 208.389 152 216 159.611 216 169 216 178.389 208.389 186 199 186 189.611 186 182 178.389 182 169Z" fill-rule="evenodd"/><text font-family="Calibri,Calibri_MSFontService,sans-serif" font-weight="400" font-size="21" transform="translate(9.6 156)">Starting <tspan font-size="21" x="0" y="26">position</tspan></text><path d="M88.0532 163.835 173.686 167.74 173.58 170.071 87.9468 166.165ZM172.483 164.849 180.293 169.209 172.119 172.841Z"/><text font-family="Calibri,Calibri_MSFontService,sans-serif" font-weight="400" font-size="19" transform="translate(108.715 79)">Location: <tspan font-size="19" x="0" y="23">X = 1</tspan><tspan font-size="19" x="-0.00062561" y="173">Reward (at this location): </tspan><tspan font-size="19" x="-0.00062561" y="196">R</tspan><tspan font-size="12" x="10.166" y="201">1</tspan><tspan font-size="19" x="20.666" y="196">= 0</tspan><tspan font-size="19" x="395.32" y="-3">Location: </tspan><tspan font-size="19" x="395.32" y="20">X = 2</tspan><tspan font-size="19" x="392.728" y="169">Reward (at this location): </tspan><tspan font-size="19" x="392.728" y="192">R</tspan><tspan font-size="12" x="402.895" y="197">2</tspan><tspan font-size="19" x="413.395" y="192">= 3</tspan><tspan font-size="19" x="457.395" y="192">R</tspan><tspan font-size="12" x="467.562" y="197">2</tspan><tspan font-size="19" x="478.062" y="192">= 1</tspan><tspan font-size="19" x="788.049" y="-3">Location: </tspan><tspan font-size="19" x="788.049" y="20">X = 3</tspan><tspan font-size="19" x="785.457" y="169">Reward (at this location): </tspan><tspan font-size="19" x="785.457" y="192">R</tspan><tspan font-size="12" x="795.624" y="197">3</tspan><tspan font-size="19" x="806.124" y="192">= 2</tspan><tspan font-size="32" x="72.2793" y="-40">V</tspan><tspan font-size="21" x="90.4459" y="-31">1</tspan><tspan font-size="32" x="101.279" y="-40">(t) </tspan></text><path d="M493.5 253.5 550.185 279.182" stroke="#FF0000" stroke-width="3" stroke-miterlimit="8" stroke-opacity="0.721569" fill="none" fill-rule="evenodd"/><path d="M0 0 48.5217 18.2668" stroke="#FF0000" stroke-width="3" stroke-miterlimit="8" stroke-opacity="0.721569" fill="none" fill-rule="evenodd" transform="matrix(1 0 0 -1 493.5 276.767)"/><g clip-path="url(#clip7)"><g clip-path="url(#clip8)"><g clip-path="url(#clip9)"><path d="M849.424 409.687 827.108 430.026C824.254 432.668 824.091 436.87 826.732 439.724 829.374 442.578 833.576 442.741 836.43 440.1L870.318 409.363C871.493 408.276 872.19 407.008 872.42 405.236 872.588 405.081 872.433 404.913 872.445 404.59 872.458 404.266 872.626 404.111 872.483 403.62 872.483 403.62 872.495 403.297 872.34 403.129 872.34 403.129 872.352 402.805 872.197 402.638 872.079 401.5 871.47 400.505 870.693 399.666L839.957 365.778C837.316 362.924 833.114 362.761 830.26 365.402 827.406 368.043 827.243 372.245 829.884 375.099L848.981 396.073C805.688 402.165 769.327 388.13 741.021 354.175 727.269 337.293 716.681 318.107 709.88 297.286 708.725 293.68 705.077 291.758 701.471 292.914 698.033 293.913 695.788 297.549 696.775 301.311 704.005 323.604 715.331 344.6 730.326 362.825 751.821 388.747 789.869 417.739 849.424 409.687Z"/></g></g></g><rect x="889" y="318" width="207" height="236" fill="#8FAADC"/><text font-family="Calibri,Calibri_MSFontService,sans-serif" font-weight="400" font-size="19" transform="translate(899.123 342)">Location: <tspan font-size="19" x="0" y="23">X = 4</tspan><tspan font-size="19" x="-2.59119" y="172">Reward (at this location): </tspan><tspan font-size="19" x="-2.59119" y="195">R</tspan><tspan font-size="12" x="7.5755" y="200">4</tspan><tspan font-size="19" x="18.0755" y="195">= 10</tspan></text><text font-family="Calibri,Calibri_MSFontService,sans-serif" font-weight="400" font-size="24" transform="matrix(0.727957 0.685622 -0.685622 0.727957 688.839 354)">Secret passage</text><rect x="716" y="50" width="394" height="258" fill="#FFFFFF" fill-opacity="0.8"/><text font-family="Calibri,Calibri_MSFontService,sans-serif" font-weight="400" font-size="32" transform="translate(548.872 39)">V<tspan font-size="21" x="18.1666" y="9">2</tspan><tspan font-size="32" x="29" y="0">(t+1) </tspan></text></g></svg>