<svg width="1152" height="576" xmlns="http://www.w3.org/2000/svg" xmlns:xlink="http://www.w3.org/1999/xlink" overflow="hidden"><defs><clipPath id="clip0"><rect x="0" y="0" width="1152" height="576"/></clipPath><clipPath id="clip1"><path d="M524.544 337.278 474.929 495.322 316.885 445.707 366.5 287.663Z" fill-rule="evenodd" clip-rule="evenodd"/></clipPath><clipPath id="clip2"><path d="M524.544 337.278 474.929 495.322 316.885 445.707 366.5 287.663Z" fill-rule="evenodd" clip-rule="evenodd"/></clipPath><clipPath id="clip3"><path d="M524.544 337.278 474.929 495.322 316.885 445.707 366.5 287.663Z" fill-rule="evenodd" clip-rule="evenodd"/></clipPath><clipPath id="clip4"><path d="M916.79 330.358 867.174 488.402 709.13 438.787 758.745 280.742Z" fill-rule="evenodd" clip-rule="evenodd"/></clipPath><clipPath id="clip5"><path d="M916.79 330.358 867.174 488.402 709.13 438.787 758.745 280.742Z" fill-rule="evenodd" clip-rule="evenodd"/></clipPath><clipPath id="clip6"><path d="M916.79 330.358 867.174 488.402 709.13 438.787 758.745 280.742Z" fill-rule="evenodd" clip-rule="evenodd"/></clipPath></defs><g clip-path="url(#clip0)"><rect x="0" y="0" width="1152" height="576" fill="#FFFFFF"/><g clip-path="url(#clip1)"><g clip-path="url(#clip2)"><g clip-path="url(#clip3)"><path d="M486.83 399.227 479.843 420.906C478.965 423.705 480.433 426.517 483.232 427.396 486.031 428.274 488.843 426.806 489.721 424.007L500.387 391.185C500.749 390.032 500.73 388.941 500.217 387.695 500.268 387.53 500.104 387.479 499.991 387.262 499.878 387.046 499.929 386.882 499.652 386.614 499.652 386.614 499.539 386.397 499.374 386.346 499.374 386.346 499.261 386.129 499.097 386.078 498.593 385.377 497.822 384.954 496.999 384.695L464.176 374.03C461.377 373.151 458.565 374.619 457.687 377.418 456.808 380.217 458.276 383.029 461.075 383.907L481.438 390.481C455.379 410.694 426.314 415.134 395.058 403.513 379.728 397.615 365.606 389.022 353.35 377.941 351.243 376.013 348.134 376.122 346.206 378.23 344.33 380.173 344.223 383.395 346.279 385.487 359.367 397.373 374.651 406.873 391.298 413.184 415.085 422.098 450.859 426.818 486.83 399.227Z"/></g></g></g><rect x="122" y="169" width="207" height="236" fill="#8FAADC"/><rect x="514" y="169" width="207" height="236" fill="#8FAADC"/><rect x="907" y="169" width="207" height="236" fill="#8FAADC"/><text font-family="Calibri,Calibri_MSFontService,sans-serif" font-weight="400" font-size="21" transform="translate(393.854 447)">Move at <tspan font-size="21" x="0" y="26">time t</tspan></text><g clip-path="url(#clip4)"><g clip-path="url(#clip5)"><g clip-path="url(#clip6)"><path d="M879.076 392.307 872.089 413.986C871.21 416.785 872.679 419.597 875.477 420.475 878.276 421.354 881.088 419.886 881.967 417.087L892.632 384.264C892.994 383.112 892.975 382.021 892.462 380.775 892.514 380.61 892.349 380.558 892.236 380.342 892.123 380.126 892.175 379.961 891.897 379.693 891.897 379.693 891.784 379.477 891.62 379.425 891.62 379.425 891.507 379.209 891.342 379.157 890.839 378.456 890.067 378.033 889.244 377.775L856.422 367.109C853.623 366.231 850.811 367.699 849.932 370.498 849.054 373.296 850.522 376.108 853.321 376.987L873.683 383.56C847.624 403.774 818.56 408.214 787.303 396.592 771.973 390.695 757.851 382.102 745.596 371.02 743.488 369.093 740.379 369.202 738.452 371.309 736.576 373.253 736.469 376.474 738.525 378.567 751.613 390.452 766.897 399.952 783.543 406.263 807.331 415.178 843.105 419.898 879.076 392.307Z"/></g></g></g><text font-family="Calibri,Calibri_MSFontService,sans-serif" font-weight="400" font-size="21" transform="translate(786.099 440)">Move at <tspan font-size="21" x="0" y="26">time t+1</tspan></text><path d="M202 286C202 276.611 209.611 269 219 269 228.389 269 236 276.611 236 286 236 295.389 228.389 303 219 303 209.611 303 202 295.389 202 286Z" fill-rule="evenodd"/><text font-family="Calibri,Calibri_MSFontService,sans-serif" font-weight="400" font-size="21" transform="translate(29.6018 273)">Starting <tspan font-size="21" x="0" y="26">position</tspan></text><path d="M108.053 280.835 193.686 284.74 193.58 287.071 107.947 283.165ZM192.483 281.849 200.293 286.209 192.119 289.841Z"/><text font-family="Calibri,Calibri_MSFontService,sans-serif" font-weight="400" font-size="19" transform="translate(128.717 196)">Location: <tspan font-size="19" x="0" y="23">X = 1</tspan><tspan font-size="19" x="-0.00062561" y="173">Reward (at this location): </tspan><tspan font-size="19" x="-0.00062561" y="196">R</tspan><tspan font-size="12" x="10.166" y="201">1</tspan><tspan font-size="19" x="20.666" y="196">= 0</tspan><tspan font-size="19" x="395.32" y="-3">Location: </tspan><tspan font-size="19" x="395.32" y="20">X = 2</tspan><tspan font-size="19" x="392.728" y="169">Reward (at this location): </tspan><tspan font-size="19" x="392.728" y="192">R</tspan><tspan font-size="12" x="402.895" y="197">2</tspan><tspan font-size="19" x="413.395" y="192">= 3</tspan><tspan font-size="19" x="457.395" y="192">R</tspan><tspan font-size="12" x="467.562" y="197">2</tspan><tspan font-size="19" x="478.062" y="192">= 1</tspan><tspan font-size="19" x="788.049" y="-3">Location: </tspan><tspan font-size="19" x="788.049" y="20">X = 3</tspan><tspan font-size="19" x="785.457" y="169">Reward (at this location): </tspan><tspan font-size="19" x="785.457" y="192">R</tspan><tspan font-size="12" x="795.624" y="197">3</tspan><tspan font-size="19" x="806.124" y="192">= 2</tspan><tspan font-size="32" x="61.6056" y="-37">V</tspan><tspan font-size="21" x="79.7722" y="-28">1</tspan><tspan font-size="32" x="90.6056" y="-37">(t) </tspan></text><path d="M513.5 370.5 570.185 396.182" stroke="#FF0000" stroke-width="3" stroke-miterlimit="8" stroke-opacity="0.721569" fill="none" fill-rule="evenodd"/><path d="M0 0 48.5217 18.2668" stroke="#FF0000" stroke-width="3" stroke-miterlimit="8" stroke-opacity="0.721569" fill="none" fill-rule="evenodd" transform="matrix(1 0 0 -1 513.5 392.767)"/><text font-family="Calibri,Calibri_MSFontService,sans-serif" font-weight="400" font-size="32" transform="translate(577.116 154)">V<tspan font-size="21" x="18.1667" y="9">2</tspan><tspan font-size="32" x="29" y="0">(t+1) </tspan></text></g></svg>