<svg width="1152" height="384" xmlns="http://www.w3.org/2000/svg" xmlns:xlink="http://www.w3.org/1999/xlink" overflow="hidden"><defs><clipPath id="clip0"><rect x="0" y="0" width="1152" height="384"/></clipPath><clipPath id="clip1"><path d="M524.544 241.278 474.929 399.322 316.885 349.707 366.5 191.663Z" fill-rule="evenodd" clip-rule="evenodd"/></clipPath><clipPath id="clip2"><path d="M524.544 241.278 474.929 399.322 316.885 349.707 366.5 191.663Z" fill-rule="evenodd" clip-rule="evenodd"/></clipPath><clipPath id="clip3"><path d="M524.544 241.278 474.929 399.322 316.885 349.707 366.5 191.663Z" fill-rule="evenodd" clip-rule="evenodd"/></clipPath><clipPath id="clip4"><path d="M916.79 234.358 867.174 392.402 709.13 342.787 758.745 184.742Z" fill-rule="evenodd" clip-rule="evenodd"/></clipPath><clipPath id="clip5"><path d="M916.79 234.358 867.174 392.402 709.13 342.787 758.745 184.742Z" fill-rule="evenodd" clip-rule="evenodd"/></clipPath><clipPath id="clip6"><path d="M916.79 234.358 867.174 392.402 709.13 342.787 758.745 184.742Z" fill-rule="evenodd" clip-rule="evenodd"/></clipPath></defs><g clip-path="url(#clip0)"><rect x="0" y="0" width="1152" height="384" fill="#FFFFFF"/><g clip-path="url(#clip1)"><g clip-path="url(#clip2)"><g clip-path="url(#clip3)"><path d="M486.83 303.227 479.843 324.906C478.965 327.705 480.433 330.517 483.232 331.396 486.031 332.274 488.843 330.806 489.721 328.007L500.387 295.185C500.749 294.032 500.73 292.941 500.217 291.695 500.268 291.53 500.104 291.479 499.991 291.262 499.878 291.046 499.929 290.882 499.652 290.614 499.652 290.614 499.539 290.397 499.374 290.346 499.374 290.346 499.261 290.129 499.097 290.078 498.593 289.377 497.822 288.954 496.999 288.695L464.176 278.03C461.377 277.151 458.565 278.619 457.687 281.418 456.808 284.217 458.276 287.029 461.075 287.907L481.438 294.481C455.379 314.694 426.314 319.134 395.058 307.513 379.728 301.615 365.606 293.022 353.35 281.941 351.243 280.013 348.134 280.122 346.206 282.23 344.33 284.173 344.223 287.395 346.279 289.487 359.367 301.373 374.651 310.873 391.298 317.184 415.085 326.098 450.859 330.818 486.83 303.227Z"/></g></g></g><rect x="122" y="73" width="207" height="236" fill="#8FAADC"/><rect x="514" y="73" width="207" height="236" fill="#8FAADC"/><rect x="907" y="73" width="207" height="236" fill="#8FAADC"/><text font-family="Calibri,Calibri_MSFontService,sans-serif" font-weight="400" font-size="21" transform="translate(393.853 351)">Move at <tspan font-size="21" x="0" y="26">time t</tspan></text><g clip-path="url(#clip4)"><g clip-path="url(#clip5)"><g clip-path="url(#clip6)"><path d="M879.076 296.307 872.089 317.986C871.21 320.785 872.679 323.597 875.477 324.475 878.276 325.354 881.088 323.886 881.967 321.087L892.632 288.264C892.994 287.112 892.975 286.021 892.462 284.775 892.514 284.61 892.349 284.558 892.236 284.342 892.123 284.126 892.175 283.961 891.897 283.693 891.897 283.693 891.784 283.477 891.62 283.425 891.62 283.425 891.507 283.209 891.342 283.157 890.839 282.456 890.067 282.033 889.244 281.775L856.422 271.109C853.623 270.231 850.811 271.699 849.932 274.498 849.054 277.296 850.522 280.108 853.321 280.987L873.683 287.56C847.624 307.774 818.56 312.214 787.303 300.592 771.973 294.695 757.851 286.102 745.596 275.02 743.488 273.093 740.379 273.202 738.452 275.31 736.576 277.253 736.469 280.474 738.525 282.567 751.613 294.452 766.897 303.952 783.543 310.264 807.331 319.178 843.105 323.898 879.076 296.307Z"/></g></g></g><text font-family="Calibri,Calibri_MSFontService,sans-serif" font-weight="400" font-size="21" transform="translate(786.099 344)">Move at <tspan font-size="21" x="0" y="26">time t+1</tspan></text><path d="M593 181C593 171.611 600.611 164 610 164 619.389 164 627 171.611 627 181 627 190.389 619.389 198 610 198 600.611 198 593 190.389 593 181Z" fill-rule="evenodd"/><text font-family="Calibri,Calibri_MSFontService,sans-serif" font-weight="400" font-size="19" transform="translate(128.717 100)">Location: <tspan font-size="19" x="0" y="23">X = 1</tspan><tspan font-size="19" x="0" y="173">Reward (at this location):</tspan><tspan font-size="19" x="0" y="196">R</tspan><tspan font-size="12" x="10.1667" y="201">1</tspan><tspan font-size="19" x="20.6667" y="196">= 0</tspan><tspan font-size="19" x="395.32" y="-3">Location: </tspan><tspan font-size="19" x="395.32" y="20">X = 2</tspan><tspan font-size="19" x="392.729" y="169">Reward (at this location):</tspan><tspan font-size="19" x="392.729" y="192">R</tspan><tspan font-size="12" x="402.896" y="197">2</tspan><tspan font-size="19" x="413.396" y="192">= 3</tspan><tspan font-size="19" x="788.049" y="-3">Location: </tspan><tspan font-size="19" x="788.049" y="20">X = 3</tspan><tspan font-size="19" x="785.458" y="169">Reward (at this location):</tspan><tspan font-size="19" x="785.458" y="192">R</tspan><tspan font-size="12" x="795.625" y="197">3</tspan><tspan font-size="19" x="806.125" y="192">= 2</tspan><tspan font-size="32" x="448.4" y="-42">V</tspan><tspan font-size="21" x="466.566" y="-33">2</tspan><tspan font-size="32" x="477.4" y="-42">(t+1) </tspan></text><rect x="104" y="59" width="404" height="325" fill="#FFFFFF" fill-opacity="0.8"/><text font-family="Calibri,Calibri_MSFontService,sans-serif" font-weight="400" font-size="21" transform="translate(421.035 168)">Starting <tspan font-size="21" x="0" y="26">position</tspan></text><path d="M499.053 175.835 584.686 179.74 584.58 182.071 498.947 178.165ZM583.483 176.849 591.293 181.209 583.119 184.841Z"/></g></svg>